<svg width="21" height="20" viewBox="0 0 21 20" fill="none" xmlns="http://www.w3.org/2000/svg">
<path fill-rule="evenodd" clip-rule="evenodd" d="M11.0402 15.245L16.015 10.4434C16.474 10.0004 16.474 9.27727 16.0352 8.82774C15.5695 8.38472 14.8202 8.38472 14.3612 8.82774L11.371 11.7139V1.14011C11.371 0.820882 11.2427 0.54074 11.0267 0.332262C10.8107 0.130299 10.5137 0 10.1897 0C9.54175 0 9.0085 0.51468 9.0085 1.14011V11.7139L6.01825 8.82774C5.5525 8.38472 4.80325 8.38472 4.34425 8.82774C4.11475 9.04925 4 9.34242 4 9.63559C4 9.92876 4.11475 10.2219 4.34425 10.4434L9.319 15.245L9.346 15.271C9.52825 15.4469 9.75775 15.5577 10.0007 15.5902C10.0109 15.5902 10.021 15.5919 10.0311 15.5935C10.0412 15.5951 10.0514 15.5968 10.0615 15.5968L10.1762 15.6033C10.2167 15.6033 10.2572 15.6033 10.2977 15.5968C10.3079 15.5968 10.318 15.5951 10.3281 15.5935C10.3382 15.5919 10.3484 15.5902 10.3585 15.5902C10.5947 15.5577 10.831 15.4469 11.0132 15.271C11.0153 15.269 11.018 15.2671 11.0209 15.2649C11.0276 15.26 11.0355 15.254 11.0402 15.245ZM0.987119 18.0258C0.441948 18.0258 0 18.4677 0 19.0129C0 19.5581 0.441949 20 0.98712 20H20.0129C20.5581 20 21 19.5581 21 19.0129C21 18.4677 20.5581 18.0258 20.0129 18.0258H0.987119Z" fill="#0C4DA2"/>
</svg>
