<svg width="44" height="44" viewBox="0 0 44 44" fill="none" xmlns="http://www.w3.org/2000/svg">
<path fill-rule="evenodd" clip-rule="evenodd" d="M17.1434 30.4327L32.2076 22.0001L17.1434 13.5675L17.1434 30.4327ZM32.7436 22.9398C33.4816 22.5266 33.4816 21.4735 32.7436 21.0604L17.6794 12.6278C16.9531 12.2212 16.0539 12.7411 16.0539 13.5675L16.0539 30.4327C16.0539 31.2591 16.9531 31.779 17.6794 31.3724L32.7436 22.9398Z" fill="white" fill-opacity="0.7"/>
<path fill-rule="evenodd" clip-rule="evenodd" d="M22 42.9C33.5428 42.9 42.9 33.5428 42.9 22C42.9 10.4572 33.5428 1.1 22 1.1C10.4572 1.1 1.1 10.4572 1.1 22C1.1 33.5428 10.4572 42.9 22 42.9ZM22 44C34.1503 44 44 34.1503 44 22C44 9.84974 34.1503 0 22 0C9.84974 0 0 9.84974 0 22C0 34.1503 9.84974 44 22 44Z" fill="white" fill-opacity="0.7"/>
</svg>
